<svg width="182" height="32" viewBox="0 0 182 32" fill="none" xmlns="http://www.w3.org/2000/svg">
<g id="Layer_1" clip-path="url(#clip0_223_307)">
<g id="Group">
<path id="Vector" d="M65.5414 8.21111C64.966 8.21111 64.5024 8.31588 64.163 8.52542V7.43047C64.163 7.18601 64.3637 6.98468 64.6121 6.98468H67.2943V6.3006H64.4548C64.3451 6.3006 64.2437 6.31498 64.1381 6.34579C63.8173 6.43618 63.5524 6.65805 63.4117 6.95798C63.3393 7.11 63.302 7.27229 63.302 7.44485V10.7913C63.302 11.7199 63.4841 12.3916 63.8401 12.7902C63.9188 12.8785 64.014 12.9627 64.1319 13.0428C64.4817 13.277 64.966 13.3941 65.5683 13.3941C66.2802 13.3941 66.8183 13.1661 67.166 12.7183C67.5137 12.2684 67.6896 11.6172 67.6896 10.781C67.6896 9.94495 67.5137 9.27729 67.166 8.85205C66.8163 8.42886 66.2699 8.21522 65.5414 8.21522V8.21111ZM66.5099 12.1266C66.2947 12.4389 65.976 12.5909 65.5414 12.5909C65.0612 12.5909 64.7073 12.4512 64.49 12.178C64.2727 11.9027 64.163 11.4384 64.163 10.7954C64.163 10.1524 64.2706 9.69227 64.4838 9.4211C64.6928 9.15198 65.0446 9.0164 65.5248 9.0164C65.9718 9.0164 66.2947 9.15814 66.512 9.45191C66.7231 9.74157 66.8307 10.1915 66.8307 10.7872C66.8307 11.383 66.7231 11.8205 66.512 12.1266H66.5099Z" fill="white"/>
<path id="Vector_2" d="M77.5473 6.94565C77.4418 6.7998 77.3176 6.68065 77.179 6.59231C76.9016 6.40332 76.5415 6.30676 76.1089 6.30676C75.6412 6.30676 75.2563 6.39715 74.9624 6.57588C74.9251 6.59847 74.892 6.61902 74.863 6.63956C74.7616 6.71352 74.6726 6.79774 74.594 6.90046C74.2856 7.29283 74.1304 7.96048 74.1304 8.88698V13.3941H74.9934V8.79659C74.9934 8.20495 75.0803 7.7797 75.2521 7.53113C75.4239 7.28667 75.7074 7.16136 76.0945 7.16136C76.4525 7.16136 76.7195 7.29489 76.8892 7.56195C77.061 7.82695 77.1479 8.23987 77.1479 8.78837V13.3941H78.0089V8.87671C78.0089 8.018 77.8537 7.36884 77.5473 6.94771V6.94565Z" fill="white"/>
<path id="Vector_3" d="M55.3711 8.56242V7.74685C55.3711 7.63387 55.3546 7.52088 55.3214 7.412C55.2076 7.03606 54.9137 6.74435 54.535 6.63136C54.4274 6.59644 54.3115 6.58 54.1956 6.58H54.0134V6.30267H53.1525V7.6503H54.0134V7.43665H54.0445C54.3011 7.43665 54.5101 7.64208 54.5101 7.89682V8.49668C53.8272 8.52749 53.316 8.72265 52.9952 9.08216C52.6454 9.47453 52.4695 10.1422 52.4695 11.0687C52.4695 11.9952 52.6516 12.3937 53.0097 12.7963C53.3698 13.1969 53.9513 13.4003 54.7378 13.4003C55.4498 13.4003 55.9858 13.1723 56.3335 12.7224C56.6812 12.2766 56.8571 11.8986 56.8571 11.0584C56.8571 10.2182 56.6812 9.55054 56.3314 9.1294C56.0976 8.84591 55.7726 8.6528 55.367 8.56242H55.3711ZM55.6795 12.1349C55.4684 12.441 55.1414 12.5971 54.7109 12.5971C54.2328 12.5971 53.8789 12.4574 53.6616 12.1842C53.4422 11.9109 53.3325 11.7178 53.3325 11.0748C53.3325 10.4318 53.4401 9.96962 53.6533 9.7005C53.8623 9.43139 54.2142 9.2958 54.6943 9.2958C55.1372 9.2958 55.4684 9.44166 55.6816 9.73132C55.8947 10.0251 56.0024 10.4729 56.0024 11.0666C56.0024 11.6603 55.8947 11.8247 55.6816 12.1349H55.6795Z" fill="white"/>
<path id="Vector_4" d="M60.0961 6.41359V6.30676H59.233V6.41359C59.233 7.16752 59.5745 7.86188 60.2492 8.48022C60.9156 9.09035 61.253 9.73746 61.253 10.3989V11.1426C61.253 12.1657 60.8722 12.6936 60.1209 12.7121C59.3427 12.6936 58.9495 12.178 58.9495 11.1837V10.7194C58.9495 10.325 59.1709 9.54436 59.1751 9.53819L59.1813 9.51354H58.2375L58.2334 9.52792C58.2334 9.52792 58.0471 10.212 58.0471 10.6023V11.1632C58.0471 12.6464 58.7301 13.3982 60.0754 13.3982C60.0836 13.3982 60.0919 13.3982 60.1002 13.3982C60.1147 13.3982 60.1271 13.3982 60.1395 13.3982C60.1478 13.3982 60.1561 13.3982 60.1644 13.3982C61.4579 13.3982 62.1119 12.6525 62.1119 11.1816V10.5386C62.1119 9.67583 61.7704 8.89314 61.0998 8.21316C60.4355 7.5414 60.0981 6.93333 60.094 6.41153L60.0961 6.41359Z" fill="white"/>
<path id="Vector_5" d="M71.7276 8.40421C71.8621 8.15359 72.2202 7.35241 71.8766 6.40332L71.8331 6.30676H70.9991L71.0467 6.4177C71.4233 7.45923 70.9535 8.15153 70.8997 8.22754C70.8749 8.22754 70.8501 8.22754 70.8252 8.22754H70.612V8.86849H70.6307C71.5951 8.86849 72.0836 9.52176 72.0836 10.8078V11.1385C72.0836 12.1759 71.7131 12.6875 70.9494 12.708C70.1733 12.6895 69.778 12.1739 69.778 11.1796V10.7153C69.778 10.3209 69.9994 9.54025 70.0015 9.53408L70.0098 9.50943H69.0681L69.064 9.52381C69.064 9.52381 68.8777 10.2079 68.8777 10.5982V11.159C68.8777 12.6423 69.5607 13.3941 70.9059 13.3941C70.9225 13.3941 70.937 13.3941 70.9494 13.3941C70.966 13.3941 70.9804 13.3941 70.997 13.3941C72.2885 13.3941 72.9445 12.6484 72.9445 11.1796V10.8078C72.9445 10.5695 72.928 10.3496 72.8969 10.1545C72.7728 9.29168 72.3671 8.68771 71.7276 8.40832V8.40421Z" fill="white"/>
<path id="Vector_6" d="M34.3168 6.36221C34.1119 6.32318 33.8904 6.30469 33.6504 6.30469C33.4103 6.30469 33.1805 6.32318 32.9715 6.36426C32.4769 6.45876 32.0795 6.66214 31.7794 6.9785C31.3489 7.4284 31.1357 8.07961 31.1357 8.93215V13.4003H32.9715V8.94653C32.9715 8.30148 33.1971 7.97895 33.6483 7.97895C33.8697 7.97895 34.0374 8.05907 34.1491 8.21725C34.2588 8.37543 34.3168 8.61784 34.3168 8.94859V13.4023H36.1525V8.94242C36.1525 8.07961 35.9414 7.42429 35.5192 6.9785C35.2191 6.66214 34.8176 6.45876 34.3168 6.36632V6.36221Z" fill="white"/>
<path id="Vector_7" d="M27.9173 9.26088C27.9173 9.26088 28.1987 9.99427 28.1987 10.7585C28.1987 11.4097 27.9732 11.7261 27.522 11.7261C27.3005 11.7261 27.1329 11.6459 27.0211 11.4878C26.9114 11.3296 26.8555 11.0872 26.8555 10.7564V6.30267H25.0198V10.7626C25.0198 11.6254 25.2288 12.2807 25.6531 12.7265C25.9532 13.0429 26.3547 13.2462 26.8555 13.3387C27.0604 13.3777 27.2819 13.3983 27.5199 13.3983C27.7579 13.3983 27.9897 13.3777 28.1987 13.3366C28.6934 13.2442 29.0908 13.0388 29.3909 12.7224C29.8213 12.2725 30.0345 11.6213 30.0345 10.7708C30.0345 10.1114 29.753 9.26088 29.753 9.26088H27.9173Z" fill="white"/>
<path id="Vector_8" d="M40.4324 6.36221C40.2275 6.32318 40.006 6.30469 39.768 6.30469C39.53 6.30469 39.2982 6.32318 39.0892 6.36426C38.5945 6.45876 38.1972 6.66214 37.8971 6.9785C37.4666 7.4284 37.2534 8.07961 37.2534 8.93215V11.385C37.2534 11.5041 37.2638 11.6233 37.2845 11.7383C37.2927 11.7774 37.299 11.8164 37.3093 11.8534C37.5038 12.6792 38.2137 13.3099 39.0871 13.3879C39.1327 13.3941 39.1782 13.3962 39.2237 13.3982C39.2403 13.3982 39.2589 13.3982 39.2775 13.3982H42.0695V11.8513H39.7246C39.3707 11.8513 39.0871 11.5678 39.0871 11.2165V8.94448C39.0871 8.29942 39.3127 7.9769 39.7639 7.9769C39.9853 7.9769 40.153 8.05701 40.2647 8.2152C40.3744 8.37338 40.4324 8.61579 40.4324 8.94653V10.401H42.2682V8.94242C42.2682 8.07961 42.0571 7.42429 41.6348 6.9785C41.3347 6.66214 40.9353 6.45876 40.4324 6.36632V6.36221Z" fill="white"/>
<path id="Vector_9" d="M45.7495 7.65852H44.8761C44.0917 7.67084 43.4563 8.29946 43.446 9.0801V9.59162H44.8782V9.48275C44.8782 9.26088 45.0603 9.0801 45.2859 9.0801H45.7515V11.2145C45.7515 11.5658 45.4659 11.8493 45.1141 11.8493H43.3735V13.3962H45.5591C45.5777 13.3962 45.5984 13.3962 45.615 13.3962C45.6626 13.3942 45.7081 13.3921 45.7515 13.3859C46.6249 13.3058 47.3348 12.6772 47.5294 11.8514C47.5397 11.8144 47.548 11.7754 47.5563 11.7363C47.577 11.6213 47.5873 11.5021 47.5873 11.383V6.30267H45.7515V7.65852H45.7495Z" fill="white"/>
<path id="Vector_10" d="M29.5171 22.1619C29.2874 21.8579 28.8672 21.5703 28.2712 21.3012C27.6275 21.0115 27.2426 20.8143 27.0956 20.7034C26.9404 20.5863 26.8618 20.4487 26.8618 20.2966C26.8618 20.1549 26.9259 20.0337 27.0501 19.9392C27.1722 19.8447 27.3585 19.7995 27.6192 19.7995C28.0932 19.7995 28.6561 19.9433 29.2998 20.233L29.8482 18.8627C29.1115 18.5443 28.3829 18.382 27.6772 18.382C26.8659 18.382 26.2202 18.5607 25.7586 18.9141C25.3012 19.2633 25.0694 19.7584 25.0694 20.385C25.0694 20.7219 25.1233 21.0156 25.2329 21.2622C25.3406 21.5066 25.5082 21.7264 25.7317 21.9134C25.9573 22.1044 26.3009 22.3037 26.7541 22.5071C27.2695 22.7372 27.5779 22.8871 27.6958 22.9611C27.8179 23.0371 27.909 23.1151 27.9649 23.1891C28.0249 23.2692 28.0539 23.3637 28.0539 23.4705C28.0539 23.639 27.9794 23.7787 27.8366 23.8835C27.6958 23.9903 27.4826 24.0396 27.1846 24.0396C26.8555 24.0396 26.4872 23.9882 26.0918 23.8835C25.7235 23.7849 25.3633 23.6513 25.0198 23.4808V25.0565C25.3488 25.2105 25.6717 25.3194 25.9759 25.3811C26.2905 25.4468 26.6838 25.4797 27.1474 25.4797C27.7 25.4797 28.1884 25.3852 28.6003 25.2023C29.0059 25.0216 29.3226 24.7627 29.5378 24.434C29.753 24.1074 29.8648 23.7273 29.8648 23.3041C29.8648 22.844 29.7489 22.4598 29.5192 22.1599L29.5171 22.1619Z" fill="white"/>
<path id="Vector_11" d="M31.7607 18.382V25.4776H33.6296V18.382H31.7607Z" fill="white"/>
<path id="Vector_12" d="M37.39 24.0067V18.382H35.5315V25.4776H40.182V24.0067H37.3921H37.39Z" fill="white"/>
<path id="Vector_13" d="M47.5748 18.382H45.5528L44.0461 20.5637C43.7481 20.9807 43.5453 21.2888 43.4501 21.4799L43.3549 21.6648V18.382H41.488V25.4776H43.3549V23.0925L44.0047 22.7063L45.4473 25.4776H47.5438L45.3231 21.5518L47.5728 18.3799L47.5748 18.382Z" fill="white"/>
<path id="Vector_14" d="M52.4717 18.3799H54.4917C55.4395 18.3799 56.1267 18.5217 56.5489 18.8031C56.9731 19.0846 57.1842 19.5283 57.1842 20.1384C57.1842 20.5596 57.0663 20.9067 56.8303 21.18C56.5944 21.4532 56.2488 21.6299 55.7976 21.712V21.7613C56.8821 21.9462 57.4264 22.5112 57.4264 23.4603C57.4264 24.095 57.2112 24.5901 56.7786 24.9455C56.346 25.3009 55.7438 25.4796 54.9677 25.4796H52.4737V18.3841L52.4717 18.3799ZM53.3037 21.4183H54.6717C55.2595 21.4183 55.6796 21.3279 55.9383 21.143C56.195 20.9602 56.3253 20.652 56.3253 20.2186C56.3253 19.82 56.1825 19.5345 55.8949 19.3578C55.6072 19.1811 55.1519 19.0928 54.5268 19.0928H53.3057V21.4183H53.3037ZM53.3037 22.1167V24.7709H54.7938C55.3712 24.7709 55.8059 24.66 56.0977 24.4381C56.3895 24.2162 56.5344 23.8691 56.5344 23.3966C56.5344 22.9569 56.3854 22.6324 56.0873 22.4269C55.7893 22.2194 55.3361 22.1167 54.7255 22.1167H53.3037Z" fill="white"/>
<path id="Vector_15" d="M63.7242 25.4755L62.8343 23.2179H59.9699L59.0903 25.4755H58.25L61.0771 18.3512H61.7767L64.5872 25.4755H63.7263H63.7242ZM62.5755 22.4763L61.7435 20.2781C61.6359 20.0008 61.5242 19.6598 61.4103 19.2551C61.3379 19.5653 61.2365 19.9063 61.102 20.2781L60.2617 22.4763H62.5755Z" fill="white"/>
<path id="Vector_16" d="M71.1523 25.4755H70.2044L66.2969 19.5201H66.2576C66.3093 20.2185 66.3362 20.8595 66.3362 21.4408V25.4735H65.5684V18.3779H66.5059L70.403 24.3087H70.4424C70.4362 24.2203 70.4217 23.9409 70.3989 23.4664C70.3761 22.9919 70.3679 22.6529 70.3741 22.4495V18.3779H71.1523V25.4735V25.4755Z" fill="white"/>
<path id="Vector_17" d="M78.0089 25.4755H77.032L74.4263 22.0346L73.6792 22.694V25.4755H72.8472V18.3799H73.6792V21.899L76.9202 18.3799H77.9033L75.0286 21.4614L78.0109 25.4755H78.0089Z" fill="white"/>
<path id="Vector_18" d="M20.2824 19.0907L15.8823 25.4858H5.38306V23.8629H11.6147L14.8993 19.0907L10.4971 12.6957H15.8823L20.2824 19.0907Z" fill="white"/>
<path id="Vector_19" d="M0 12.6979L4.40005 6.3028H14.8993V7.9257H8.66558L5.38106 12.6979L9.78526 19.0929H4.40005L0 12.6979Z" fill="white"/>
</g>
<g id="Group_2">
<path id="Vector_20" fill-rule="evenodd" clip-rule="evenodd" d="M105.316 6.88403C105.14 7.81464 104.848 8.68566 104.42 9.48274C103.799 10.6352 103.31 10.9331 102.462 11.8021C102.027 12.2478 101.638 12.7224 101.332 13.2462C101.203 13.5421 101.127 13.8194 101.098 14.0782C100.976 15.1341 101.493 15.4464 102.172 16.0956C102.116 15.5101 102.383 15.0129 103.01 14.6144C104.25 13.879 105.63 12.8908 106.278 11.5679C106.502 11.1118 106.638 10.6147 106.651 10.0744C106.686 8.54392 106.166 8.0139 105.32 6.88403" fill="white"/>
<path id="Vector_21" fill-rule="evenodd" clip-rule="evenodd" d="M98.8419 2.74457C98.8501 2.95616 98.8646 3.14105 98.8729 3.31567C98.9143 4.33255 98.5832 4.71465 98.074 5.55487C97.8008 6.00681 97.5256 6.52245 97.5897 7.06684C97.6642 7.69957 98.0078 7.97895 98.4921 8.26656C98.3803 7.9317 98.4673 7.60712 98.7777 7.2887C99.4007 6.69295 99.9574 6.03968 100.154 5.18098C100.222 4.88516 100.233 4.57496 100.166 4.25859C99.9781 3.36086 99.6242 3.06504 98.8419 2.74457Z" fill="white"/>
<path id="Vector_22" fill-rule="evenodd" clip-rule="evenodd" d="M101.12 1.57568C101.398 2.95207 101.7 3.38553 101.034 5.56105C100.746 6.49781 100.117 7.1819 99.4151 8.39394C98.7797 9.493 98.1278 10.7441 98.1444 12.0629C98.165 13.5955 99.1026 14.1378 100.009 14.8342C99.8539 14.0228 99.8953 13.3695 100.578 12.6012C101.257 11.8781 101.965 11.12 102.571 10.2839C103.178 9.4478 103.687 8.52953 103.968 7.48799C104.066 7.12849 104.136 6.76076 104.173 6.38688C104.21 6.01299 104.215 5.63295 104.179 5.25085C103.985 3.07533 102.615 2.35221 101.12 1.57568Z" fill="white"/>
<path id="Vector_23" d="M141.619 11.9972H143.234C143.61 11.9972 143.919 11.9007 144.163 11.7096C144.407 11.5165 144.527 11.2474 144.527 10.8961C144.527 10.5448 144.403 10.2921 144.157 10.0949C143.91 9.89566 143.527 9.79706 143.012 9.79706H141.619V11.9993V11.9972ZM140.137 8.58296H143.424C143.844 8.58296 144.219 8.63843 144.546 8.7473C144.875 8.85824 145.15 9.01026 145.376 9.20542C145.601 9.40058 145.773 9.63477 145.895 9.90594C146.017 10.1771 146.077 10.4729 146.077 10.7955C146.077 11.2063 146.013 11.5453 145.883 11.8082C145.754 12.0732 145.603 12.2828 145.436 12.441C145.266 12.5991 145.094 12.7162 144.92 12.7902C144.746 12.8662 144.612 12.9196 144.517 12.9545L146.276 15.9066H144.56L143.033 13.2113H141.617V15.9066H140.135V8.58296H140.137ZM135.071 8.58296H136.797L139.43 15.9066H137.882L137.428 14.487H134.442L133.989 15.9066H132.44L135.073 8.58296H135.071ZM135.944 9.92032H135.922L134.837 13.273H137.027L135.942 9.92032H135.944ZM130.812 11.042C130.783 10.8365 130.718 10.6496 130.617 10.4811C130.518 10.3127 130.389 10.1689 130.236 10.0497C130.081 9.93059 129.905 9.83609 129.704 9.77241C129.506 9.70667 129.295 9.6738 129.073 9.6738C128.682 9.6738 128.347 9.74775 128.067 9.89566C127.788 10.0436 127.556 10.2387 127.376 10.4811C127.196 10.7256 127.064 11.0009 126.979 11.309C126.894 11.6172 126.852 11.9294 126.852 12.2437C126.852 12.5581 126.894 12.8806 126.979 13.1846C127.064 13.4887 127.196 13.7639 127.376 14.0084C127.556 14.2508 127.788 14.448 128.067 14.5939C128.347 14.7418 128.684 14.8157 129.073 14.8157C129.332 14.8157 129.562 14.7788 129.764 14.7028C129.967 14.6267 130.145 14.524 130.3 14.3946C130.456 14.2631 130.588 14.1091 130.698 13.9262C130.807 13.7434 130.901 13.5482 130.975 13.3346L132.325 13.9098C132.008 14.6514 131.584 15.1999 131.052 15.5553C130.522 15.9107 129.862 16.0894 129.071 16.0894C128.438 16.0894 127.885 15.9867 127.417 15.7813C126.95 15.5758 126.556 15.2964 126.24 14.9431C125.923 14.5898 125.687 14.181 125.532 13.7146C125.377 13.2483 125.3 12.7573 125.3 12.2437C125.3 11.7302 125.387 11.2392 125.561 10.7729C125.735 10.3065 125.983 9.89772 126.308 9.54438C126.633 9.19103 127.026 8.91165 127.492 8.70622C127.958 8.50079 128.483 8.39807 129.073 8.39807C129.87 8.39807 130.549 8.58912 131.11 8.97328C131.671 9.35743 132.047 9.93264 132.238 10.701L130.812 11.0399V11.042ZM120.666 8.39807C121.256 8.39807 121.784 8.50079 122.247 8.70622C122.713 8.91165 123.106 9.19103 123.431 9.54438C123.756 9.89772 124.005 10.3065 124.178 10.7729C124.352 11.2392 124.439 11.7302 124.439 12.2437C124.439 12.7573 124.352 13.2483 124.178 13.7146C124.005 14.181 123.756 14.5898 123.431 14.9431C123.106 15.2964 122.713 15.5758 122.247 15.7813C121.784 15.9867 121.256 16.0894 120.666 16.0894C120.076 16.0894 119.549 15.9867 119.085 15.7813C118.621 15.5758 118.226 15.2964 117.901 14.9431C117.576 14.5898 117.328 14.181 117.154 13.7146C116.98 13.2483 116.893 12.7573 116.893 12.2437C116.893 11.7302 116.98 11.2392 117.154 10.7729C117.328 10.3065 117.576 9.89772 117.901 9.54438C118.226 9.19103 118.619 8.91165 119.085 8.70622C119.551 8.50079 120.076 8.39807 120.666 8.39807ZM120.666 9.6738C120.275 9.6738 119.94 9.74775 119.66 9.89566C119.381 10.0436 119.149 10.2387 118.969 10.4811C118.789 10.7256 118.657 11.0009 118.572 11.309C118.487 11.6172 118.446 11.9294 118.446 12.2437C118.446 12.5581 118.489 12.8806 118.572 13.1846C118.657 13.4887 118.789 13.7639 118.969 14.0084C119.149 14.2508 119.381 14.448 119.66 14.5939C119.94 14.7418 120.277 14.8157 120.666 14.8157C121.055 14.8157 121.393 14.7418 121.672 14.5939C121.951 14.446 122.183 14.2508 122.363 14.0084C122.543 13.766 122.676 13.4907 122.761 13.1846C122.846 12.8806 122.887 12.5663 122.887 12.2437C122.887 11.9212 122.844 11.6172 122.761 11.309C122.676 11.0009 122.543 10.7236 122.363 10.4811C122.183 10.2387 121.951 10.0415 121.672 9.89566C121.393 9.74775 121.055 9.6738 120.666 9.6738ZM110.556 13.7064C110.835 14.0906 111.181 14.372 111.591 14.5507C112.001 14.7295 112.448 14.8178 112.934 14.8178C113.112 14.8178 113.298 14.8034 113.499 14.7726C113.698 14.7418 113.878 14.6904 114.041 14.6185C114.203 14.5466 114.337 14.4501 114.445 14.3309C114.553 14.2118 114.604 14.0618 114.604 13.8831C114.604 13.7393 114.569 13.6181 114.499 13.5236C114.428 13.427 114.323 13.3428 114.184 13.2709C114.043 13.199 113.874 13.1353 113.675 13.0798C113.476 13.0244 113.245 12.9689 112.978 12.9155L112.104 12.7306C111.787 12.6628 111.487 12.5806 111.202 12.4841C110.918 12.3875 110.668 12.2622 110.45 12.1082C110.233 11.9541 110.059 11.761 109.931 11.5329C109.803 11.3029 109.736 11.0214 109.736 10.6845C109.736 10.3004 109.828 9.96551 110.008 9.67585C110.188 9.38825 110.422 9.14995 110.709 8.96095C110.997 8.77196 111.324 8.63226 111.688 8.53982C112.052 8.44737 112.421 8.40013 112.789 8.40013C113.468 8.40013 114.083 8.51928 114.631 8.75552C115.18 8.99177 115.662 9.3636 116.076 9.87101L114.848 10.7338C114.656 10.3969 114.385 10.1381 114.035 9.95113C113.685 9.76624 113.265 9.6738 112.779 9.6738C112.35 9.6738 111.994 9.74364 111.711 9.88539C111.427 10.0271 111.285 10.2264 111.285 10.4873C111.285 10.6373 111.328 10.7626 111.411 10.8632C111.496 10.9619 111.614 11.0461 111.765 11.1159C111.916 11.1837 112.09 11.2412 112.284 11.2844C112.479 11.3296 112.688 11.3748 112.909 11.4241L113.872 11.6192C114.168 11.6809 114.451 11.7589 114.724 11.8514C114.998 11.9438 115.24 12.0671 115.449 12.2211C115.66 12.3752 115.827 12.5704 115.958 12.8066C116.086 13.0429 116.152 13.3366 116.152 13.6859C116.152 14.1317 116.049 14.5076 115.842 14.8178C115.635 15.1259 115.368 15.3745 115.039 15.5635C114.71 15.7525 114.339 15.8881 113.927 15.9703C113.514 16.0524 113.106 16.0935 112.7 16.0935C112.375 16.0935 112.05 16.0607 111.727 15.9949C111.403 15.9292 111.092 15.8326 110.792 15.7011C110.494 15.5717 110.215 15.4094 109.956 15.2184C109.697 15.0273 109.476 14.8034 109.292 14.5507L110.552 13.7064H110.556Z" fill="white"/>
<path id="Vector_24" d="M152.031 18.1786H153.758L156.39 25.5022H154.842L154.389 24.0827H151.402L150.949 25.5022H149.401L152.034 18.1786H152.031ZM152.905 19.516H152.882L151.798 22.8686H153.987L152.903 19.516H152.905ZM147.313 18.1786H148.795V25.5022H147.313V18.1786ZM144.674 20.6684C144.63 20.5246 144.564 20.3706 144.479 20.2062C144.395 20.0419 144.274 19.8899 144.119 19.7481C143.964 19.6064 143.772 19.4934 143.538 19.403C143.306 19.3147 143.026 19.2695 142.702 19.2695C142.31 19.2695 141.975 19.3434 141.696 19.4913C141.416 19.6392 141.185 19.8344 141.004 20.0768C140.824 20.3192 140.692 20.5965 140.607 20.9047C140.522 21.2128 140.481 21.5251 140.481 21.8415C140.481 22.1578 140.524 22.4783 140.607 22.7823C140.692 23.0884 140.824 23.3616 141.004 23.6061C141.185 23.8485 141.416 24.0457 141.696 24.1916C141.975 24.3395 142.312 24.4135 142.702 24.4135C142.966 24.4135 143.219 24.3724 143.459 24.2902C143.699 24.208 143.91 24.093 144.094 23.9451C144.279 23.7972 144.426 23.6184 144.537 23.411C144.647 23.2014 144.703 22.9713 144.703 22.7166H142.755V21.5025H146.052V25.5043H144.769V24.8757C144.637 25.0133 144.488 25.1325 144.322 25.2352C144.157 25.3379 143.981 25.4221 143.796 25.4879C143.612 25.5536 143.426 25.6029 143.238 25.6378C143.049 25.6727 142.871 25.6892 142.702 25.6892C142.068 25.6892 141.516 25.5865 141.048 25.381C140.58 25.1756 140.187 24.8962 139.87 24.5429C139.554 24.1895 139.318 23.7807 139.162 23.3144C139.007 22.8481 138.931 22.3571 138.931 21.8435C138.931 21.3299 139.018 20.839 139.191 20.3726C139.365 19.9063 139.614 19.4975 139.939 19.1441C140.264 18.7908 140.657 18.5114 141.122 18.306C141.586 18.1006 142.114 17.9978 142.704 17.9978C143.507 17.9978 144.192 18.1807 144.755 18.5422C145.32 18.9058 145.752 19.44 146.054 20.1467L144.672 20.6705L144.674 20.6684ZM133.916 21.5949H135.53C135.907 21.5949 136.215 21.4984 136.46 21.3073C136.704 21.1163 136.824 20.8451 136.824 20.4938C136.824 20.1425 136.7 19.8899 136.453 19.6906C136.207 19.4913 135.824 19.3927 135.309 19.3927H133.914V21.5929L133.916 21.5949ZM132.434 18.1807H135.721C136.141 18.1807 136.515 18.2361 136.844 18.345C137.174 18.4539 137.449 18.608 137.674 18.8031C137.9 18.9983 138.072 19.2325 138.194 19.5037C138.316 19.7748 138.376 20.0706 138.376 20.3932C138.376 20.804 138.312 21.143 138.181 21.4059C138.053 21.6689 137.904 21.8805 137.734 22.0387C137.565 22.1969 137.393 22.3119 137.219 22.3879C137.045 22.4639 136.911 22.5194 136.816 22.5522L138.575 25.5043H136.859L135.332 22.809H133.916V25.5043H132.434V18.1807ZM127.695 17.9958C128.284 17.9958 128.812 18.0985 129.276 18.3039C129.741 18.5094 130.135 18.7888 130.46 19.1421C130.785 19.4954 131.033 19.9042 131.207 20.3706C131.381 20.8369 131.468 21.3279 131.468 21.8415C131.468 22.355 131.381 22.846 131.207 23.3123C131.033 23.7787 130.785 24.1875 130.46 24.5408C130.135 24.8942 129.741 25.1736 129.276 25.379C128.812 25.5844 128.284 25.6871 127.695 25.6871C127.105 25.6871 126.577 25.5844 126.113 25.379C125.648 25.1736 125.254 24.8942 124.93 24.5408C124.605 24.1875 124.356 23.7787 124.182 23.3123C124.009 22.846 123.922 22.355 123.922 21.8415C123.922 21.3279 124.009 20.8369 124.182 20.3706C124.356 19.9042 124.605 19.4954 124.93 19.1421C125.254 18.7888 125.648 18.5094 126.113 18.3039C126.577 18.0985 127.105 17.9958 127.695 17.9958ZM127.695 19.2715C127.303 19.2715 126.968 19.3455 126.689 19.4934C126.409 19.6413 126.178 19.8365 125.997 20.0789C125.817 20.3213 125.683 20.5986 125.6 20.9067C125.515 21.2149 125.474 21.5271 125.474 21.8435C125.474 22.1599 125.515 22.4804 125.6 22.7844C125.685 23.0905 125.817 23.3637 125.997 23.6082C126.178 23.8506 126.409 24.0478 126.689 24.1936C126.968 24.3416 127.303 24.4155 127.695 24.4155C128.086 24.4155 128.421 24.3416 128.7 24.1936C128.98 24.0457 129.212 23.8506 129.392 23.6082C129.572 23.3658 129.704 23.0905 129.789 22.7844C129.874 22.4804 129.915 22.166 129.915 21.8435C129.915 21.521 129.874 21.2149 129.789 20.9067C129.704 20.5986 129.572 20.3213 129.392 20.0789C129.212 19.8365 128.98 19.6392 128.7 19.4934C128.421 19.3455 128.086 19.2715 127.695 19.2715ZM117.634 18.1807H123.21V19.4564H119.116V21.1224H122.876V22.3365H119.116V24.2286H123.497V25.5043H117.634V18.1807ZM115.074 20.6705C115.03 20.5267 114.964 20.3726 114.879 20.2083C114.795 20.0439 114.674 19.8919 114.519 19.7502C114.364 19.6084 114.172 19.4954 113.938 19.405C113.706 19.3167 113.426 19.2715 113.102 19.2715C112.71 19.2715 112.375 19.3455 112.096 19.4934C111.816 19.6413 111.585 19.8365 111.404 20.0789C111.224 20.3213 111.092 20.5986 111.007 20.9067C110.922 21.2149 110.881 21.5271 110.881 21.8435C110.881 22.1599 110.922 22.4804 111.007 22.7844C111.092 23.0905 111.224 23.3637 111.404 23.6082C111.585 23.8506 111.816 24.0478 112.096 24.1936C112.375 24.3416 112.712 24.4155 113.102 24.4155C113.366 24.4155 113.619 24.3744 113.859 24.2923C114.099 24.2101 114.31 24.095 114.494 23.9471C114.679 23.7992 114.826 23.6205 114.937 23.413C115.047 23.2035 115.103 22.9734 115.103 22.7186H113.155V21.5046H116.452V25.5063H115.169V24.8777C115.037 25.0154 114.888 25.1345 114.72 25.2372C114.554 25.3399 114.379 25.4242 114.194 25.4899C114.01 25.5557 113.824 25.605 113.636 25.6399C113.447 25.6748 113.269 25.6912 113.099 25.6912C112.466 25.6912 111.914 25.5885 111.446 25.3831C110.978 25.1777 110.585 24.8983 110.268 24.5449C109.952 24.1916 109.716 23.7828 109.56 23.3165C109.405 22.8501 109.329 22.3591 109.329 21.8456C109.329 21.332 109.416 20.841 109.589 20.3747C109.763 19.9084 110.012 19.4995 110.337 19.1462C110.661 18.7929 111.055 18.5135 111.52 18.308C111.986 18.1026 112.512 17.9999 113.102 17.9999C113.905 17.9999 114.59 18.1827 115.155 18.5443C115.72 18.9079 116.152 19.442 116.454 20.1487L115.072 20.6726L115.074 20.6705Z" fill="white"/>
<path id="Vector_25" d="M176.402 23.3021C176.681 23.6862 177.027 23.9676 177.436 24.1464C177.846 24.3251 178.293 24.4134 178.78 24.4134C178.958 24.4134 179.144 24.397 179.345 24.3662C179.543 24.3354 179.723 24.284 179.887 24.2121C180.048 24.1402 180.183 24.0437 180.29 23.9245C180.398 23.8054 180.45 23.6554 180.45 23.4767C180.45 23.3329 180.415 23.2117 180.344 23.1172C180.274 23.0206 180.168 22.9364 180.03 22.8645C179.889 22.7926 179.719 22.7289 179.52 22.6734C179.322 22.618 179.09 22.5646 178.823 22.5091L177.95 22.3242C177.633 22.2544 177.333 22.1722 177.047 22.0777C176.764 21.9811 176.513 21.8558 176.296 21.7017C176.079 21.5477 175.905 21.3566 175.776 21.1265C175.648 20.8965 175.582 20.613 175.582 20.2781C175.582 19.894 175.673 19.557 175.853 19.2694C176.033 18.9818 176.267 18.7435 176.555 18.5545C176.842 18.3655 177.169 18.2259 177.534 18.1334C177.898 18.041 178.266 17.9937 178.635 17.9937C179.314 17.9937 179.928 18.1129 180.477 18.3491C181.025 18.5854 181.507 18.9572 181.921 19.4646L180.694 20.3274C180.501 19.9926 180.23 19.7317 179.881 19.5468C179.531 19.3619 179.111 19.2694 178.624 19.2694C178.196 19.2694 177.84 19.3393 177.556 19.479C177.273 19.6207 177.13 19.82 177.13 20.0809C177.13 20.2309 177.174 20.3562 177.256 20.4568C177.341 20.5575 177.459 20.6397 177.61 20.7095C177.761 20.7773 177.935 20.8348 178.13 20.88C178.324 20.9252 178.533 20.9704 178.755 21.0177L179.717 21.2128C180.013 21.2744 180.297 21.3525 180.57 21.445C180.843 21.5374 181.085 21.6607 181.294 21.8147C181.505 21.9688 181.675 22.164 181.803 22.4023C181.932 22.6385 181.998 22.9323 181.998 23.2815C181.998 23.7273 181.894 24.1032 181.687 24.4134C181.48 24.7216 181.213 24.9702 180.884 25.1592C180.555 25.3481 180.185 25.4837 179.773 25.5659C179.359 25.6481 178.951 25.6892 178.546 25.6892C178.221 25.6892 177.896 25.6563 177.573 25.5906C177.248 25.5248 176.938 25.4283 176.637 25.2968C176.339 25.1653 176.06 25.0051 175.801 24.814C175.543 24.623 175.321 24.3991 175.137 24.1443L176.397 23.3L176.402 23.3021ZM170.975 18.1807H172.701L175.334 25.5043H173.785L173.332 24.0847H170.346L169.893 25.5043H168.344L170.977 18.1807H170.975ZM171.848 19.518H171.826L170.741 22.8706H172.931L171.846 19.518H171.848ZM166.511 20.6705C166.467 20.5267 166.401 20.3726 166.318 20.2083C166.233 20.0439 166.113 19.8919 165.958 19.7501C165.803 19.6084 165.61 19.4954 165.377 19.405C165.145 19.3167 164.865 19.2715 164.54 19.2715C164.149 19.2715 163.814 19.3455 163.535 19.4934C163.255 19.6413 163.023 19.8364 162.843 20.0788C162.663 20.3212 162.531 20.5986 162.446 20.9067C162.361 21.2149 162.32 21.5271 162.32 21.8435C162.32 22.1599 162.361 22.4803 162.446 22.7844C162.531 23.0905 162.663 23.3637 162.843 23.6081C163.023 23.8506 163.255 24.0478 163.535 24.1936C163.814 24.3415 164.151 24.4155 164.54 24.4155C164.805 24.4155 165.058 24.3744 165.298 24.2922C165.538 24.2101 165.749 24.095 165.933 23.9471C166.117 23.7992 166.264 23.6205 166.376 23.413C166.488 23.2034 166.542 22.9734 166.542 22.7186H164.594V21.5045H167.891V25.5063H166.608V24.8777C166.476 25.0153 166.327 25.1345 166.161 25.2372C165.995 25.3399 165.819 25.4242 165.635 25.4899C165.451 25.5556 165.265 25.6049 165.076 25.6399C164.888 25.6748 164.71 25.6912 164.54 25.6912C163.905 25.6912 163.355 25.5885 162.887 25.3831C162.419 25.1776 162.026 24.8983 161.709 24.5449C161.393 24.1916 161.157 23.7828 161.001 23.3164C160.846 22.8501 160.77 22.3591 160.77 21.8455C160.77 21.332 160.856 20.841 161.03 20.3747C161.204 19.9083 161.453 19.4995 161.777 19.1462C162.102 18.7928 162.496 18.5135 162.961 18.308C163.427 18.1026 163.953 17.9999 164.542 17.9999C165.346 17.9999 166.031 18.1827 166.596 18.5443C167.161 18.9079 167.593 19.442 167.895 20.1487L166.513 20.6725L166.511 20.6705Z" fill="white"/>
</g>
<path id="Vector_26" d="M89.0816 0H88.1357V32H89.0816V0Z" fill="white"/>
</g>
<defs>
<clipPath id="clip0_223_307">
<rect width="182" height="32" fill="white"/>
</clipPath>
</defs>
</svg>
