<svg width="16" height="19" viewBox="0 0 16 19" fill="none" xmlns="http://www.w3.org/2000/svg">
<path id="Vector" d="M12.8027 18.3456C11.3831 18.3456 9.87065 17.8931 8.31841 16.988C6.88557 16.1583 5.466 14.9666 4.21891 13.5486C2.97181 12.1306 1.92371 10.5165 1.19403 8.88732C0.39801 7.12237 0 5.40268 0 3.78858C0 2.74771 0.862355 1.73701 1.22056 1.3448C1.75124 0.786657 2.58706 0.138 3.18408 0.138C3.48922 0.138 3.83416 0.364276 4.29851 0.846997C4.64345 1.20904 5.02819 1.69176 5.39967 2.2499C5.62521 2.58178 6.77944 4.31655 6.77944 5.14623C6.77944 5.82506 6.10282 6.29269 5.3864 6.80558C5.10779 7.00169 4.82919 7.19779 4.61692 7.37881C4.39138 7.57492 4.35157 7.68052 4.35157 7.71069C5.10779 9.86784 7.42952 12.5077 9.3267 13.3676C9.33997 13.3676 9.43284 13.3223 9.61857 13.0659C9.77778 12.8245 9.96352 12.5077 10.136 12.1909C10.5738 11.3763 10.9983 10.607 11.5954 10.607C12.325 10.607 13.8507 11.9194 14.1426 12.1759C14.6335 12.6133 15.058 13.0508 15.3765 13.4279C15.801 13.9408 16 14.3481 16 14.6951C16 15.389 15.4295 16.3393 14.9386 16.9427C14.5937 17.3651 13.7048 18.3456 12.7894 18.3456H12.8027Z" fill="white"/>
</svg>
